<svg width="80" height="40" viewBox="0 0 80 40" fill="none" xmlns="http://www.w3.org/2000/svg">
<path d="M0.746723 -3.43163e-06C0.334319 -3.46768e-06 -0.000728337 0.334383 0.00696992 0.746715C0.100293 5.74528 1.12993 10.6844 3.04482 15.3073C5.05501 20.1604 8.00138 24.5699 11.7157 28.2843C15.4301 31.9986 19.8396 34.945 24.6927 36.9552C29.5457 38.9654 34.7471 40 40 40C45.2529 40 50.4543 38.9654 55.3073 36.9552C60.1604 34.945 64.5699 31.9986 68.2843 28.2843C71.9986 24.5699 74.945 20.1604 76.9552 15.3073C78.8701 10.6844 79.8997 5.74528 79.993 0.746718C80.0007 0.334386 79.6657 0 79.2533 0V0C78.8409 0 78.5073 0.334387 78.4993 0.746713C78.4062 5.54913 77.4153 10.2941 75.5754 14.7358C73.6403 19.4077 70.8039 23.6526 67.2282 27.2282C63.6526 30.8039 59.4076 33.6403 54.7358 35.5754C50.064 37.5106 45.0568 38.5066 40 38.5066C34.9432 38.5066 29.936 37.5106 25.2642 35.5754C20.5923 33.6403 16.3474 30.8039 12.7718 27.2282C9.19609 23.6526 6.35972 19.4076 4.42458 14.7358C2.58475 10.2941 1.59383 5.54913 1.50069 0.74671C1.49269 0.334383 1.15913 -3.39558e-06 0.746723 -3.43163e-06V-3.43163e-06Z" fill="#2770FF"/>
</svg>
